<?xml version="1.0"?>
<svg version="1.1" xmlns="http://www.w3.org/2000/svg" width="400" height="50" style=""><path fill="#e94949" d="M16.04248046875,18.65966796875q0-0.2734375,0.196533203125-0.452880859375t0.46142578125-0.281982421875t0.5810546875-0.13671875t0.555419921875-0.0341796875q0.49560546875,0,1.051025390625,0.13671875t0.828857421875,0.59814453125q0.49560546875,0.83740234375,0.726318359375,1.990966796875t0.435791015625,2.213134765625q0.3076171875,1.4697265625,0.7861328125,3.076171875t0.999755859375,3.272705078125t1.068115234375,3.272705078125t0.95703125,3.0078125q0.49560546875-2.06787109375,0.914306640625-4.23828125t0.80322265625-4.3408203125t0.80322265625-4.3408203125t0.914306640625-4.25537109375q0.1025390625-0.49560546875,0.15380859375-1.24755859375t0.213623046875-1.45263671875t0.469970703125-1.204833984375t0.93994140625-0.504150390625q0.66650390625,0,0.897216796875,0.367431640625t0.230712890625,1.068115234375q-0.1708984375,1.93115234375-0.555419921875,3.828125t-0.709228515625,3.7939453125q-0.46142578125,2.34130859375-0.999755859375,4.691162109375t-1.00830078125,4.708251953125t-0.80322265625,4.725341796875t-0.401611328125,4.742431640625q0.0341796875,0.1025390625,0.1025390625,0.2392578125t0.068359375,0.205078125q0,0.205078125-0.18798828125,0.384521484375t-0.469970703125,0.3076171875t-0.615234375,0.196533203125t-0.623779296875,0.068359375q-0.2734375,0-0.623779296875-0.0341796875t-0.70068359375-0.128173828125t-0.615234375-0.247802734375t-0.333251953125-0.39306640625q-0.2734375-0.80322265625-0.504150390625-1.563720703125t-0.435791015625-1.563720703125q-0.97412109375-3.50341796875-2.042236328125-6.878662109375t-1.973876953125-6.861572265625q-0.42724609375-1.572265625-0.640869140625-3.084716796875t-0.692138671875-2.982177734375q0.068359375,0.13671875,0.068359375,0.22216796875q-0.068359375-0.2392578125-0.13671875-0.452880859375t-0.15380859375-0.469970703125q0,0.068359375,0.01708984375,0.08544921875t0.01708984375,0.05126953125q0-0.0341796875-0.01708984375-0.05126953125t-0.01708984375-0.05126953125z M34.664770507812,23.1884765625q0-0.205078125,0.281982421875-0.59814453125t0.6494140625-0.760498046875l0.66650390625-0.66650390625t0.367431640625-0.333251953125q0.93994140625-0.83740234375,1.99951171875-0.83740234375q0.39306640625,0,0.845947265625,0.162353515625t0.452880859375,0.435791015625q0,0.1708984375-0.145263671875,0.264892578125t-0.247802734375,0.162353515625q-0.205078125,0-0.452880859375,0.2392578125t-0.546875,0.606689453125t-0.6494140625,0.80322265625t-0.726318359375,0.828857421875q-0.2392578125,0.2734375-0.68359375,0.3076171875t-0.615234375,0.0341796875q-0.3076171875,0-0.751953125-0.13671875t-0.4443359375-0.5126953125z M35.160375976562,35.71533203125q0-1.572265625,0.367431640625-3.084716796875t0.623779296875-3.016357421875q0.068359375-0.39306640625,0.538330078125-0.487060546875t0.777587890625-0.093994140625q0.5810546875,0,0.9228515625,0.1708984375q0.13671875,0.068359375,0.25634765625,0.15380859375t0.11962890625,0.22216796875q0,1.4697265625-0.350341796875,2.87109375t-0.350341796875,2.9736328125q0,0.52978515625,0.068359375,0.999755859375t0.15380859375,0.931396484375l0.1025390625,0.49560546875q0,0.13671875,0.01708984375,0.2392578125t0.05126953125,0.2392578125q0,0.3076171875-0.435791015625,0.418701171875t-0.760498046875,0.111083984375q-0.49560546875,0-0.914306640625-0.196533203125t-0.657958984375-0.675048828125l-0.2392578125-0.49560546875q-0.205078125-0.39306640625-0.213623046875-0.880126953125t-0.076904296875-0.897216796875z M42.896435546875,25.2734375q0-0.2392578125,0.5126953125-0.41015625t1.162109375-0.281982421875t1.256103515625-0.162353515625t0.828857421875-0.08544921875q0-0.46142578125,0.0341796875-0.931396484375t0.18798828125-0.83740234375t0.487060546875-0.589599609375t0.931396484375-0.22216796875q0.49560546875,0,0.751953125,0.11962890625t0.546875,0.49560546875q0.068359375,0.205078125,0.068359375,0.39306640625l0,0.572509765625t-0.0341796875,0.589599609375q0.63232421875-0.068359375,1.256103515625-0.162353515625t1.256103515625-0.093994140625q0.46142578125,0,0.63232421875,0.01708984375t0.341796875,0.41015625q0.13671875,0.39306640625-0.333251953125,0.59814453125t-1.1279296875,0.3076171875t-1.307373046875,0.15380859375t-0.7861328125,0.05126953125q-0.205078125,2.939453125-0.418701171875,5.82763671875t-0.213623046875,5.86181640625q0,1.3330078125,0.08544921875,2.75146484375t0.478515625,2.68310546875q0.1025390625,0.39306640625,0.341796875,0.73486328125t0.2392578125,0.73486328125q0,0.2392578125-0.18798828125,0.3759765625t-0.452880859375,0.230712890625t-0.52978515625,0.111083984375t-0.435791015625,0.01708984375q-1.07666015625,0-1.640625-0.80322265625t-0.811767578125-1.922607421875t-0.264892578125-2.298583984375t-0.01708984375-1.9140625q0-1.50390625,0.059814453125-3.076171875t0.145263671875-3.1103515625t0.2392578125-3.0078125t0.35888671875-2.734375q-0.59814453125,0.068359375-1.170654296875,0.15380859375t-1.170654296875,0.08544921875q-0.13671875,0-0.367431640625-0.01708984375t-0.435791015625-0.08544921875t-0.350341796875-0.18798828125t-0.145263671875-0.341796875z M55.622729492187,36.4501953125q0-0.97412109375,0.247802734375-2.008056640625t0.7861328125-1.86279296875t1.358642578125-1.35009765625t1.982421875-0.521240234375q0.87158203125,0,1.837158203125,0.299072265625t1.768798828125,0.8544921875t1.307373046875,1.358642578125t0.504150390625,1.79443359375q0,1.1962890625-0.435791015625,2.27294921875t-1.221923828125,1.922607421875t-1.837158203125,1.3330078125t-2.281494140625,0.487060546875q-1.00830078125,0-1.76025390625-0.367431640625t-1.256103515625-0.982666015625t-0.751953125-1.45263671875t-0.247802734375-1.77734375z M58.134936523437,36.416015625q0,0.3076171875,0.093994140625,0.90576171875t0.281982421875,1.170654296875t0.487060546875,0.9912109375t0.726318359375,0.384521484375q0.90576171875-0.1025390625,1.495361328125-0.589599609375t0.95703125-1.187744140625t0.5126953125-1.52099609375t0.145263671875-1.55517578125q0-0.93994140625-0.367431640625-1.572265625t-1.204833984375-1.025390625q0,0.0341796875,0.0341796875,0.0341796875t0.0341796875-0.0341796875l-0.42724609375-0.1025390625q-0.1708984375-0.068359375-0.418701171875-0.15380859375t-0.487060546875-0.3759765625q-0.66650390625,0.2392578125-1.033935546875,0.615234375t-0.555419921875,0.914306640625t-0.230712890625,1.290283203125t-0.042724609375,1.8115234375z M68.57119140625,31.34033203125q0-0.70068359375,0.247802734375-1.17919921875t1.051025390625-0.478515625q0.3076171875,0,0.76904296875,0.093994140625t0.52978515625,0.469970703125q0.1708984375,1.00830078125,0.18798828125,2.1875t0.11962890625,2.2216796875q0.39306640625-0.76904296875,1.00830078125-1.65771484375t1.4013671875-1.640625t1.708984375-1.24755859375t1.8798828125-0.49560546875q0.068359375,0,0.25634765625,0.05126953125t0.350341796875,0.145263671875t0.196533203125,0.213623046875t-0.18798828125,0.22216796875q-0.068359375,0.205078125-0.29052734375,0.247802734375t-0.39306640625,0.042724609375q-0.1025390625,0-0.32470703125-0.08544921875q-1.2646484375,0.66650390625-2.1533203125,1.8115234375t-1.45263671875,2.537841796875t-0.8203125,2.939453125t-0.25634765625,3.016357421875q0,0.73486328125-0.333251953125,0.888671875t-1.068115234375,0.15380859375q-0.39306640625,0-0.828857421875-0.08544921875t-0.606689453125-0.546875q-0.3076171875-0.97412109375-0.504150390625-2.23876953125t-0.299072265625-2.606201171875t-0.145263671875-2.640380859375t-0.042724609375-2.34130859375z M87.410009765625,39.62890625q0.1025390625-2.7685546875,0.179443359375-5.673828125t0.145263671875-5.733642578125t0.1025390625-5.494384765625t0.0341796875-4.97314453125q0.0341796875-0.46142578125,0.80322265625-0.73486328125t1.837158203125-0.401611328125t2.255859375-0.162353515625t2.110595703125-0.0341796875q0.205078125,0,0.8544921875-0.01708984375l0.32470703125,0q0.49560546875,0,1.04248046875,0.0341796875q0.7177734375,0.05126953125,1.256103515625,0.22216796875t0.538330078125,0.49560546875q0,0.2392578125-0.18798828125,0.384521484375t-0.435791015625,0.213623046875t-0.5126953125,0.08544921875t-0.367431640625,0.01708984375q-1.6064453125,0-3.1787109375-0.05126953125q-0.42724609375-0.01708984375-0.87158203125-0.01708984375q-1.162109375,0-2.3583984375,0.1025390625q0.068359375,0.205078125,0.111083984375,1.239013671875t0.042724609375,2.332763671875t-0.01708984375,2.537841796875t0,1.905517578125l0,4.443359375q0.52978515625-0.0341796875,1.04248046875-0.0341796875l1.025390625,0l0.68359375-0.0341796875q0.341796875-0.01708984375,0.7177734375-0.01708984375q0.39306640625,0,0.80322265625,0.01708984375q0.8203125,0.0341796875,1.495361328125,0.196533203125t0.675048828125,0.572509765625q0,0.3076171875-0.25634765625,0.452880859375t-0.572509765625,0.213623046875t-0.59814453125,0.068359375l-0.316162109375,0q-0.97412109375,0-2.025146484375-0.068359375t-1.956787109375-0.068359375q-0.1708984375,0.068359375-0.367431640625,0.05126953125t-0.350341796875-0.01708984375q0,2.5634765625-0.05126953125,5.101318359375t-0.11962890625,5.050048828125q0,0.49560546875-0.623779296875,0.6494140625t-1.187744140625,0.15380859375q-0.63232421875,0-0.999755859375-0.15380859375t-0.521240234375-0.504150390625t-0.18798828125-0.931396484375q-0.01708984375-0.32470703125-0.0341796875-0.7177734375q0-0.32470703125,0.01708984375-0.70068359375z M101.70856933594,41.52587890625q0-0.42724609375,0.05126953125-0.863037109375t0.05126953125-0.863037109375l0-0.2734375q0-0.52978515625,0.435791015625-0.66650390625t0.897216796875-0.13671875q0.52978515625,0,1.016845703125,0.22216796875t0.487060546875,0.8544921875q0.1025390625,0.3076171875,0.1025390625,0.73486328125l0,0.80322265625q0,0.59814453125-0.418701171875,0.828857421875t-1.119384765625,0.230712890625q-0.49560546875,0-0.999755859375-0.179443359375t-0.504150390625-0.692138671875z M115.30080566406,20.12939453125q0-0.205078125,0.196533203125-0.3076171875t0.42724609375-0.15380859375t0.418701171875-0.05126953125l0.18798828125,0q0.59814453125,0,0.863037109375,0.2734375t0.640869140625,0.70068359375q2.5634765625,3.70849609375,4.69970703125,7.630615234375t4.11865234375,7.938232421875q0.1708984375-4.6826171875,0.350341796875-9.425048828125t0.452880859375-9.407958984375q0-0.205078125,0.196533203125-0.341796875t0.4443359375-0.205078125t0.504150390625-0.08544921875t0.39306640625-0.01708984375q0.205078125,0,0.452880859375,0.01708984375t0.49560546875,0.1025390625t0.41015625,0.205078125t0.162353515625,0.32470703125q0.068359375,0.73486328125,0.076904296875,1.478271484375t0.008544921875,1.478271484375q0,5.5029296875-0.2392578125,10.78369140625t-0.2392578125,10.6640625l0,1.23046875q0,0.068359375-0.068359375,0.205078125q0.0341796875,0.13671875,0.1025390625,0.299072265625t0.068359375,0.230712890625q0,0.2734375-0.281982421875,0.41015625t-0.615234375,0.213623046875t-0.589599609375,0.076904296875t-0.18798828125,0q-0.87158203125,0-1.4697265625-0.478515625t-0.59814453125-1.14501953125q-1.2646484375-2.8369140625-2.520751953125-5.631103515625t-2.623291015625-5.562744140625q-0.87158203125-1.7431640625-1.751708984375-3.494873046875t-1.888427734375-3.392333984375q0.0341796875,0.0341796875,0.0341796875,0.1025390625q0.1708984375,1.708984375,0.367431640625,3.409423828125t0.299072265625,3.409423828125q0.068359375,1.4697265625,0.15380859375,2.9736328125t0.2734375,2.9736328125q0,0.56396484375-0.350341796875,0.7177734375t-0.811767578125,0.15380859375q-0.39306640625,0-0.743408203125-0.1025390625t-0.418701171875-0.5126953125q0-1.572265625-0.11962890625-3.341064453125t-0.22216796875-3.563232421875q-0.1708984375-2.37548828125-0.452880859375-4.827880859375t-0.281982421875-4.793701171875q0-0.1025390625,0.01708984375-0.213623046875t0.01708984375-0.247802734375q-0.1025390625-0.1708984375-0.230712890625-0.35888671875t-0.128173828125-0.341796875z M134.28198242188,36.826171875q0-1.1962890625,0.264892578125-2.81982421875t0.897216796875-3.076171875t1.666259765625-2.469482421875t2.606201171875-1.016845703125q1.4697265625,0,2.20458984375,0.845947265625t0.73486328125,2.281494140625q0,0.93994140625-0.350341796875,2.059326171875t-0.999755859375,2.119140625t-1.5380859375,1.666259765625t-1.982421875,0.66650390625l-0.4443359375-0.0341796875q0,0.46142578125,0.13671875,1.239013671875t0.401611328125,1.546630859375t0.68359375,1.35009765625t1.016845703125,0.5810546875q0.87158203125,0,1.6748046875-0.70068359375t1.52099609375-1.55517578125t1.3330078125-1.55517578125t1.1279296875-0.70068359375q0.2734375,0,0.56396484375,0.08544921875t0.32470703125,0.478515625q0,0.2392578125-0.128173828125,0.39306640625t-0.230712890625,0.341796875q-0.52978515625,0.90576171875-1.153564453125,1.72607421875t-1.409912109375,1.48681640625t-1.717529296875,1.051025390625t-2.059326171875,0.384521484375q-1.4697265625,0-2.44384765625-0.521240234375t-1.572265625-1.4013671875t-0.863037109375-2.03369140625t-0.264892578125-2.418212890625z M137.34106445313,35.52734375l0.478515625,0.42724609375q0.341796875,0.3076171875,0.68359375,0.13671875t0.615234375-0.623779296875t0.504150390625-1.119384765625t0.41015625-1.3671875t0.264892578125-1.3671875t0.08544921875-1.11083984375l0-0.5810546875t-0.05126953125-0.615234375t-0.179443359375-0.487060546875t-0.401611328125-0.247802734375q-0.08544921875-0.01708984375-0.15380859375-0.01708984375q-0.5810546875,0-0.9912109375,0.73486328125q-0.4443359375,0.8203125-0.7177734375,1.990966796875t-0.39306640625,2.401123046875t-0.15380859375,1.845703125z M148.56345214844,31.34033203125q0-0.70068359375,0.247802734375-1.17919921875t1.051025390625-0.478515625q0.3076171875,0,0.76904296875,0.093994140625t0.52978515625,0.469970703125q0.1708984375,1.00830078125,0.18798828125,2.1875t0.11962890625,2.2216796875q0.39306640625-0.76904296875,1.00830078125-1.65771484375t1.4013671875-1.640625t1.708984375-1.24755859375t1.8798828125-0.49560546875q0.068359375,0,0.25634765625,0.05126953125t0.350341796875,0.145263671875t0.196533203125,0.213623046875t-0.18798828125,0.22216796875q-0.068359375,0.205078125-0.29052734375,0.247802734375t-0.39306640625,0.042724609375q-0.1025390625,0-0.32470703125-0.08544921875q-1.2646484375,0.66650390625-2.1533203125,1.8115234375t-1.45263671875,2.537841796875t-0.8203125,2.939453125t-0.25634765625,3.016357421875q0,0.73486328125-0.333251953125,0.888671875t-1.068115234375,0.15380859375q-0.39306640625,0-0.828857421875-0.08544921875t-0.606689453125-0.546875q-0.3076171875-0.97412109375-0.504150390625-2.23876953125t-0.299072265625-2.606201171875t-0.145263671875-2.640380859375t-0.042724609375-2.34130859375z M160.70869140625,32.314453125q0-0.49560546875,0.281982421875-0.6494140625t0.709228515625-0.15380859375q0.70068359375,0,1.068115234375,0.264892578125t0.367431640625,0.931396484375q0,0.80322265625,0.11962890625,2.008056640625t0.350341796875,2.34130859375t0.546875,1.956787109375t0.657958984375,0.8203125q0.63232421875,0,1.119384765625-0.97412109375t0.8544921875-2.392578125t0.63232421875-3.050537109375t0.367431640625-2.913818359375q0.068359375-0.70068359375,0.333251953125-1.016845703125t0.965576171875-0.316162109375q0.80322265625,0,1.170654296875,0.66650390625t0.469970703125,1.640625q0.08544921875,0.83740234375,0.08544921875,1.7431640625l0,0.29052734375l0,0.68359375q0,0.6494140625,0.01708984375,1.162109375l0.49560546875,10.47607421875l0.068359375,1.7431640625q0.0341796875,0.2392578125,0.05126953125,0.452880859375t0.01708984375,0.452880859375q0,0.97412109375-0.418701171875,1.256103515625t-1.358642578125,0.281982421875q-0.205078125,0-0.521240234375-0.0341796875t-0.615234375-0.13671875t-0.5126953125-0.281982421875t-0.213623046875-0.452880859375l0.068359375-0.1708984375q0.08544921875-1.025390625,0.08544921875-2.1533203125l0-0.35888671875q-0.01708984375-1.3330078125-0.08544921875-2.7001953125t-0.15380859375-2.734375t-0.08544921875-2.6318359375q-0.2392578125,0.52978515625-0.555419921875,1.09375t-0.73486328125,1.016845703125t-0.948486328125,0.751953125t-1.1962890625,0.299072265625q-0.97412109375,0-1.6064453125-0.5126953125t-0.982666015625-1.3330078125t-0.504150390625-1.837158203125t-0.205078125-2.03369140625t-0.068359375-1.939697265625t-0.13671875-1.55517578125z"/><path fill="#e94949" d=""/></svg>
